M48
; DRILL file {KiCad (5.1.10-1-10_14)} date Tuesday, June 08, 2021 at 01:14:56 PM
; FORMAT={-:-/ absolute / inch / decimal}
; #@! TF.CreationDate,2021-06-08T13:14:56-07:00
; #@! TF.GenerationSoftware,Kicad,Pcbnew,(5.1.10-1-10_14)
; #@! TF.FileFunction,Plated,1,2,PTH
FMAT,2
INCH
T1C0.0236
T2C0.0295
T3C0.0315
T4C0.0354
T5C0.0394
%
G90
G05
T1
X6.05Y-3.4909
X6.05Y-3.55
X6.25Y-3.4909
X6.25Y-3.55
T2
X6.0522Y-3.7411
X6.0522Y-3.7911
X6.0522Y-3.8411
T3
X5.85Y-3.0
X5.85Y-3.0984
X5.85Y-4.8016
X5.85Y-4.9
X5.9779Y-3.2395
X5.9786Y-3.3684
X6.2779Y-3.2395
X6.2786Y-3.3684
T4
X5.75Y-3.25
X5.75Y-3.35
T5
X5.85Y-4.1
X5.85Y-4.2
X5.85Y-4.3
X5.85Y-4.4
X5.85Y-4.5
X5.95Y-4.1
X5.95Y-4.2
X5.95Y-4.3
X5.95Y-4.4
X5.95Y-4.5
X6.05Y-3.0
X6.05Y-3.1
X6.05Y-4.8
X6.05Y-4.9
X6.25Y-3.0
X6.25Y-3.1
X6.25Y-3.95
X6.25Y-4.05
X6.25Y-4.8
X6.25Y-4.9
T0
M30
