%TF.GenerationSoftware,KiCad,Pcbnew,(5.1.10-1-10_14)*%
%TF.CreationDate,2021-06-08T13:14:51-07:00*%
%TF.ProjectId,EurorackBBPS,4575726f-7261-4636-9b42-4250532e6b69,rev?*%
%TF.SameCoordinates,Original*%
%TF.FileFunction,Copper,L2,Bot*%
%TF.FilePolarity,Positive*%
%FSLAX46Y46*%
G04 Gerber Fmt 4.6, Leading zero omitted, Abs format (unit mm)*
G04 Created by KiCad (PCBNEW (5.1.10-1-10_14)) date 2021-06-08 13:14:51*
%MOMM*%
%LPD*%
G01*
G04 APERTURE LIST*
%TA.AperFunction,EtchedComponent*%
%ADD10C,0.010000*%
%TD*%
%TA.AperFunction,ComponentPad*%
%ADD11O,1.600000X1.600000*%
%TD*%
%TA.AperFunction,ComponentPad*%
%ADD12C,1.600000*%
%TD*%
%TA.AperFunction,ComponentPad*%
%ADD13C,1.800000*%
%TD*%
%TA.AperFunction,ComponentPad*%
%ADD14R,1.800000X1.800000*%
%TD*%
%TA.AperFunction,ComponentPad*%
%ADD15C,1.200000*%
%TD*%
%TA.AperFunction,ComponentPad*%
%ADD16R,1.200000X1.200000*%
%TD*%
%TA.AperFunction,ComponentPad*%
%ADD17O,1.700000X1.700000*%
%TD*%
%TA.AperFunction,ComponentPad*%
%ADD18R,1.700000X1.700000*%
%TD*%
%TA.AperFunction,ComponentPad*%
%ADD19R,1.500000X1.050000*%
%TD*%
%TA.AperFunction,ComponentPad*%
%ADD20O,1.500000X1.050000*%
%TD*%
%TA.AperFunction,ComponentPad*%
%ADD21R,1.600000X1.600000*%
%TD*%
G04 APERTURE END LIST*
D10*
%TO.C,REF\u002A\u002A*%
G36*
X149851069Y-90884186D02*
G01*
X149406445Y-90800365D01*
X149278947Y-90491080D01*
X149151449Y-90181794D01*
X149403754Y-89810754D01*
X149474004Y-89706843D01*
X149536728Y-89612913D01*
X149589062Y-89533348D01*
X149628143Y-89472530D01*
X149651107Y-89434843D01*
X149656058Y-89424579D01*
X149643324Y-89406090D01*
X149608118Y-89366580D01*
X149554938Y-89310478D01*
X149488282Y-89242213D01*
X149412646Y-89166214D01*
X149332528Y-89086908D01*
X149252426Y-89008725D01*
X149176836Y-88936093D01*
X149110255Y-88873441D01*
X149057182Y-88825197D01*
X149022113Y-88795790D01*
X149010377Y-88788759D01*
X148988740Y-88798877D01*
X148941338Y-88827241D01*
X148872807Y-88870871D01*
X148787785Y-88926782D01*
X148690907Y-88991994D01*
X148635650Y-89029781D01*
X148534752Y-89098657D01*
X148443701Y-89159860D01*
X148367030Y-89210422D01*
X148309272Y-89247372D01*
X148274957Y-89267742D01*
X148267746Y-89270803D01*
X148247252Y-89263864D01*
X148199487Y-89244949D01*
X148131168Y-89216913D01*
X148049011Y-89182609D01*
X147959730Y-89144891D01*
X147870042Y-89106613D01*
X147786662Y-89070630D01*
X147716306Y-89039794D01*
X147665690Y-89016961D01*
X147641529Y-89004983D01*
X147640578Y-89004276D01*
X147635964Y-88985469D01*
X147625672Y-88935382D01*
X147610713Y-88859207D01*
X147592099Y-88762135D01*
X147570841Y-88649357D01*
X147558582Y-88583558D01*
X147535638Y-88463050D01*
X147513805Y-88354203D01*
X147494278Y-88262524D01*
X147478252Y-88193519D01*
X147466921Y-88152696D01*
X147463326Y-88144489D01*
X147438994Y-88136452D01*
X147384041Y-88129967D01*
X147304892Y-88125030D01*
X147207974Y-88121636D01*
X147099713Y-88119782D01*
X146986535Y-88119462D01*
X146874865Y-88120673D01*
X146771132Y-88123410D01*
X146681759Y-88127669D01*
X146613174Y-88133445D01*
X146571803Y-88140733D01*
X146563190Y-88145105D01*
X146552867Y-88171236D01*
X146538108Y-88226607D01*
X146520648Y-88303893D01*
X146502220Y-88395770D01*
X146496259Y-88427842D01*
X146467934Y-88582476D01*
X146445124Y-88704625D01*
X146426920Y-88798327D01*
X146412417Y-88867616D01*
X146400708Y-88916529D01*
X146390885Y-88949103D01*
X146382044Y-88969372D01*
X146373276Y-88981374D01*
X146371543Y-88983053D01*
X146343629Y-88999816D01*
X146289305Y-89025386D01*
X146215223Y-89057212D01*
X146128035Y-89092740D01*
X146034392Y-89129417D01*
X145940948Y-89164689D01*
X145854353Y-89196004D01*
X145781260Y-89220807D01*
X145728322Y-89236546D01*
X145702189Y-89240668D01*
X145701274Y-89240324D01*
X145679914Y-89226359D01*
X145632916Y-89194678D01*
X145565173Y-89148609D01*
X145481577Y-89091482D01*
X145387018Y-89026627D01*
X145360146Y-89008157D01*
X145262725Y-88942301D01*
X145173837Y-88884350D01*
X145098588Y-88837462D01*
X145042080Y-88804793D01*
X145009419Y-88789500D01*
X145005407Y-88788759D01*
X144984316Y-88801608D01*
X144942536Y-88837112D01*
X144884555Y-88890707D01*
X144814865Y-88957829D01*
X144737955Y-89033913D01*
X144658317Y-89114396D01*
X144580439Y-89194713D01*
X144508814Y-89270301D01*
X144447930Y-89336595D01*
X144402279Y-89389031D01*
X144376350Y-89423045D01*
X144372117Y-89432455D01*
X144382088Y-89454357D01*
X144408980Y-89499200D01*
X144448264Y-89559679D01*
X144479883Y-89606211D01*
X144537902Y-89690525D01*
X144606216Y-89790374D01*
X144674421Y-89890527D01*
X144710925Y-89944373D01*
X144834200Y-90126629D01*
X144751480Y-90279619D01*
X144715241Y-90349318D01*
X144687074Y-90408586D01*
X144671009Y-90448689D01*
X144668774Y-90458897D01*
X144685278Y-90471171D01*
X144731918Y-90495387D01*
X144804391Y-90529737D01*
X144898394Y-90572412D01*
X145009626Y-90621606D01*
X145133785Y-90675510D01*
X145266568Y-90732316D01*
X145403673Y-90790218D01*
X145540798Y-90847407D01*
X145673642Y-90902076D01*
X145797902Y-90952416D01*
X145909275Y-90996620D01*
X146003461Y-91032881D01*
X146076156Y-91059391D01*
X146123059Y-91074342D01*
X146139167Y-91076746D01*
X146159714Y-91057689D01*
X146193067Y-91015964D01*
X146232298Y-90960294D01*
X146235401Y-90955622D01*
X146350577Y-90811736D01*
X146484947Y-90695717D01*
X146634216Y-90608570D01*
X146794087Y-90551301D01*
X146960263Y-90524914D01*
X147128448Y-90530415D01*
X147294345Y-90568810D01*
X147453658Y-90641105D01*
X147488513Y-90662374D01*
X147629263Y-90773004D01*
X147742286Y-90903698D01*
X147826997Y-91049936D01*
X147882806Y-91207192D01*
X147909126Y-91370943D01*
X147905370Y-91536667D01*
X147870950Y-91699838D01*
X147805277Y-91855935D01*
X147707765Y-92000433D01*
X147668187Y-92045131D01*
X147544297Y-92158888D01*
X147413876Y-92241782D01*
X147267685Y-92298644D01*
X147122912Y-92330313D01*
X146960140Y-92338131D01*
X146796560Y-92312062D01*
X146637702Y-92254755D01*
X146489094Y-92168856D01*
X146356265Y-92057014D01*
X146244744Y-91921877D01*
X146232989Y-91904117D01*
X146194492Y-91847850D01*
X146161137Y-91805077D01*
X146139840Y-91784628D01*
X146139167Y-91784331D01*
X146116129Y-91788721D01*
X146063843Y-91806124D01*
X145986610Y-91834732D01*
X145888732Y-91872735D01*
X145774509Y-91918326D01*
X145648242Y-91969697D01*
X145514233Y-92025038D01*
X145376782Y-92082542D01*
X145240192Y-92140399D01*
X145108763Y-92196802D01*
X144986795Y-92249942D01*
X144878591Y-92298010D01*
X144788451Y-92339199D01*
X144720677Y-92371699D01*
X144679570Y-92393703D01*
X144668774Y-92402564D01*
X144677181Y-92429640D01*
X144699728Y-92480303D01*
X144732387Y-92545817D01*
X144751480Y-92581841D01*
X144834200Y-92734832D01*
X144710925Y-92917088D01*
X144647772Y-93010125D01*
X144578273Y-93111985D01*
X144512835Y-93207438D01*
X144479883Y-93255250D01*
X144434727Y-93322495D01*
X144398943Y-93379436D01*
X144377062Y-93418646D01*
X144372437Y-93431381D01*
X144384915Y-93449917D01*
X144419748Y-93490941D01*
X144473322Y-93550475D01*
X144542017Y-93624542D01*
X144622219Y-93709165D01*
X144673714Y-93762685D01*
X144765714Y-93856319D01*
X144848001Y-93937241D01*
X144917055Y-94002177D01*
X144969356Y-94047858D01*
X145001384Y-94071011D01*
X145007884Y-94073232D01*
X145032606Y-94062924D01*
X145082595Y-94034439D01*
X145152788Y-93990937D01*
X145238125Y-93935577D01*
X145333544Y-93871520D01*
X145360146Y-93853303D01*
X145456833Y-93786927D01*
X145543883Y-93727378D01*
X145616405Y-93677984D01*
X145669507Y-93642075D01*
X145698297Y-93622981D01*
X145701274Y-93621136D01*
X145724218Y-93623895D01*
X145774664Y-93638538D01*
X145845959Y-93662513D01*
X145931453Y-93693266D01*
X146024493Y-93728244D01*
X146118426Y-93764893D01*
X146206601Y-93800661D01*
X146282366Y-93832994D01*
X146339069Y-93859338D01*
X146370057Y-93877142D01*
X146371543Y-93878407D01*
X146380399Y-93889294D01*
X146389157Y-93907682D01*
X146398723Y-93937606D01*
X146410004Y-93983103D01*
X146423907Y-94048209D01*
X146441337Y-94136961D01*
X146463202Y-94253393D01*
X146490409Y-94401542D01*
X146496259Y-94433618D01*
X146514626Y-94528686D01*
X146532595Y-94611565D01*
X146548431Y-94674930D01*
X146560400Y-94711458D01*
X146563190Y-94716356D01*
X146587928Y-94724427D01*
X146643210Y-94730987D01*
X146722611Y-94736033D01*
X146819704Y-94739559D01*
X146928062Y-94741561D01*
X147041260Y-94742036D01*
X147152872Y-94740977D01*
X147256471Y-94738382D01*
X147345632Y-94734246D01*
X147413928Y-94728563D01*
X147454934Y-94721331D01*
X147463326Y-94716971D01*
X147471792Y-94692698D01*
X147485565Y-94637426D01*
X147503450Y-94556662D01*
X147524252Y-94455912D01*
X147546777Y-94340683D01*
X147558582Y-94277902D01*
X147580849Y-94158787D01*
X147601021Y-94052565D01*
X147618085Y-93964427D01*
X147631031Y-93899566D01*
X147638845Y-93863174D01*
X147640578Y-93857184D01*
X147660110Y-93847061D01*
X147707157Y-93825662D01*
X147774997Y-93795839D01*
X147856909Y-93760445D01*
X147946172Y-93722332D01*
X148036065Y-93684353D01*
X148119865Y-93649360D01*
X148190853Y-93620206D01*
X148242306Y-93599743D01*
X148267503Y-93590823D01*
X148268604Y-93590657D01*
X148288481Y-93600769D01*
X148334223Y-93629117D01*
X148401283Y-93672723D01*
X148485116Y-93728606D01*
X148581174Y-93793787D01*
X148636350Y-93831679D01*
X148737519Y-93900725D01*
X148829370Y-93962050D01*
X148907256Y-94012663D01*
X148966531Y-94049571D01*
X149002549Y-94069782D01*
X149010623Y-94072701D01*
X149029416Y-94060153D01*
X149069543Y-94025463D01*
X149126507Y-93973063D01*
X149195815Y-93907384D01*
X149272969Y-93832856D01*
X149353475Y-93753913D01*
X149432837Y-93674983D01*
X149506560Y-93600500D01*
X149570148Y-93534894D01*
X149619106Y-93482596D01*
X149648939Y-93448039D01*
X149656058Y-93436478D01*
X149646047Y-93417654D01*
X149617922Y-93372631D01*
X149574546Y-93305787D01*
X149518782Y-93221499D01*
X149453494Y-93124144D01*
X149403754Y-93050707D01*
X149151449Y-92679667D01*
X149406445Y-92061095D01*
X149851069Y-91977275D01*
X150295693Y-91893454D01*
X150295693Y-90968006D01*
X149851069Y-90884186D01*
G37*
X149851069Y-90884186D02*
X149406445Y-90800365D01*
X149278947Y-90491080D01*
X149151449Y-90181794D01*
X149403754Y-89810754D01*
X149474004Y-89706843D01*
X149536728Y-89612913D01*
X149589062Y-89533348D01*
X149628143Y-89472530D01*
X149651107Y-89434843D01*
X149656058Y-89424579D01*
X149643324Y-89406090D01*
X149608118Y-89366580D01*
X149554938Y-89310478D01*
X149488282Y-89242213D01*
X149412646Y-89166214D01*
X149332528Y-89086908D01*
X149252426Y-89008725D01*
X149176836Y-88936093D01*
X149110255Y-88873441D01*
X149057182Y-88825197D01*
X149022113Y-88795790D01*
X149010377Y-88788759D01*
X148988740Y-88798877D01*
X148941338Y-88827241D01*
X148872807Y-88870871D01*
X148787785Y-88926782D01*
X148690907Y-88991994D01*
X148635650Y-89029781D01*
X148534752Y-89098657D01*
X148443701Y-89159860D01*
X148367030Y-89210422D01*
X148309272Y-89247372D01*
X148274957Y-89267742D01*
X148267746Y-89270803D01*
X148247252Y-89263864D01*
X148199487Y-89244949D01*
X148131168Y-89216913D01*
X148049011Y-89182609D01*
X147959730Y-89144891D01*
X147870042Y-89106613D01*
X147786662Y-89070630D01*
X147716306Y-89039794D01*
X147665690Y-89016961D01*
X147641529Y-89004983D01*
X147640578Y-89004276D01*
X147635964Y-88985469D01*
X147625672Y-88935382D01*
X147610713Y-88859207D01*
X147592099Y-88762135D01*
X147570841Y-88649357D01*
X147558582Y-88583558D01*
X147535638Y-88463050D01*
X147513805Y-88354203D01*
X147494278Y-88262524D01*
X147478252Y-88193519D01*
X147466921Y-88152696D01*
X147463326Y-88144489D01*
X147438994Y-88136452D01*
X147384041Y-88129967D01*
X147304892Y-88125030D01*
X147207974Y-88121636D01*
X147099713Y-88119782D01*
X146986535Y-88119462D01*
X146874865Y-88120673D01*
X146771132Y-88123410D01*
X146681759Y-88127669D01*
X146613174Y-88133445D01*
X146571803Y-88140733D01*
X146563190Y-88145105D01*
X146552867Y-88171236D01*
X146538108Y-88226607D01*
X146520648Y-88303893D01*
X146502220Y-88395770D01*
X146496259Y-88427842D01*
X146467934Y-88582476D01*
X146445124Y-88704625D01*
X146426920Y-88798327D01*
X146412417Y-88867616D01*
X146400708Y-88916529D01*
X146390885Y-88949103D01*
X146382044Y-88969372D01*
X146373276Y-88981374D01*
X146371543Y-88983053D01*
X146343629Y-88999816D01*
X146289305Y-89025386D01*
X146215223Y-89057212D01*
X146128035Y-89092740D01*
X146034392Y-89129417D01*
X145940948Y-89164689D01*
X145854353Y-89196004D01*
X145781260Y-89220807D01*
X145728322Y-89236546D01*
X145702189Y-89240668D01*
X145701274Y-89240324D01*
X145679914Y-89226359D01*
X145632916Y-89194678D01*
X145565173Y-89148609D01*
X145481577Y-89091482D01*
X145387018Y-89026627D01*
X145360146Y-89008157D01*
X145262725Y-88942301D01*
X145173837Y-88884350D01*
X145098588Y-88837462D01*
X145042080Y-88804793D01*
X145009419Y-88789500D01*
X145005407Y-88788759D01*
X144984316Y-88801608D01*
X144942536Y-88837112D01*
X144884555Y-88890707D01*
X144814865Y-88957829D01*
X144737955Y-89033913D01*
X144658317Y-89114396D01*
X144580439Y-89194713D01*
X144508814Y-89270301D01*
X144447930Y-89336595D01*
X144402279Y-89389031D01*
X144376350Y-89423045D01*
X144372117Y-89432455D01*
X144382088Y-89454357D01*
X144408980Y-89499200D01*
X144448264Y-89559679D01*
X144479883Y-89606211D01*
X144537902Y-89690525D01*
X144606216Y-89790374D01*
X144674421Y-89890527D01*
X144710925Y-89944373D01*
X144834200Y-90126629D01*
X144751480Y-90279619D01*
X144715241Y-90349318D01*
X144687074Y-90408586D01*
X144671009Y-90448689D01*
X144668774Y-90458897D01*
X144685278Y-90471171D01*
X144731918Y-90495387D01*
X144804391Y-90529737D01*
X144898394Y-90572412D01*
X145009626Y-90621606D01*
X145133785Y-90675510D01*
X145266568Y-90732316D01*
X145403673Y-90790218D01*
X145540798Y-90847407D01*
X145673642Y-90902076D01*
X145797902Y-90952416D01*
X145909275Y-90996620D01*
X146003461Y-91032881D01*
X146076156Y-91059391D01*
X146123059Y-91074342D01*
X146139167Y-91076746D01*
X146159714Y-91057689D01*
X146193067Y-91015964D01*
X146232298Y-90960294D01*
X146235401Y-90955622D01*
X146350577Y-90811736D01*
X146484947Y-90695717D01*
X146634216Y-90608570D01*
X146794087Y-90551301D01*
X146960263Y-90524914D01*
X147128448Y-90530415D01*
X147294345Y-90568810D01*
X147453658Y-90641105D01*
X147488513Y-90662374D01*
X147629263Y-90773004D01*
X147742286Y-90903698D01*
X147826997Y-91049936D01*
X147882806Y-91207192D01*
X147909126Y-91370943D01*
X147905370Y-91536667D01*
X147870950Y-91699838D01*
X147805277Y-91855935D01*
X147707765Y-92000433D01*
X147668187Y-92045131D01*
X147544297Y-92158888D01*
X147413876Y-92241782D01*
X147267685Y-92298644D01*
X147122912Y-92330313D01*
X146960140Y-92338131D01*
X146796560Y-92312062D01*
X146637702Y-92254755D01*
X146489094Y-92168856D01*
X146356265Y-92057014D01*
X146244744Y-91921877D01*
X146232989Y-91904117D01*
X146194492Y-91847850D01*
X146161137Y-91805077D01*
X146139840Y-91784628D01*
X146139167Y-91784331D01*
X146116129Y-91788721D01*
X146063843Y-91806124D01*
X145986610Y-91834732D01*
X145888732Y-91872735D01*
X145774509Y-91918326D01*
X145648242Y-91969697D01*
X145514233Y-92025038D01*
X145376782Y-92082542D01*
X145240192Y-92140399D01*
X145108763Y-92196802D01*
X144986795Y-92249942D01*
X144878591Y-92298010D01*
X144788451Y-92339199D01*
X144720677Y-92371699D01*
X144679570Y-92393703D01*
X144668774Y-92402564D01*
X144677181Y-92429640D01*
X144699728Y-92480303D01*
X144732387Y-92545817D01*
X144751480Y-92581841D01*
X144834200Y-92734832D01*
X144710925Y-92917088D01*
X144647772Y-93010125D01*
X144578273Y-93111985D01*
X144512835Y-93207438D01*
X144479883Y-93255250D01*
X144434727Y-93322495D01*
X144398943Y-93379436D01*
X144377062Y-93418646D01*
X144372437Y-93431381D01*
X144384915Y-93449917D01*
X144419748Y-93490941D01*
X144473322Y-93550475D01*
X144542017Y-93624542D01*
X144622219Y-93709165D01*
X144673714Y-93762685D01*
X144765714Y-93856319D01*
X144848001Y-93937241D01*
X144917055Y-94002177D01*
X144969356Y-94047858D01*
X145001384Y-94071011D01*
X145007884Y-94073232D01*
X145032606Y-94062924D01*
X145082595Y-94034439D01*
X145152788Y-93990937D01*
X145238125Y-93935577D01*
X145333544Y-93871520D01*
X145360146Y-93853303D01*
X145456833Y-93786927D01*
X145543883Y-93727378D01*
X145616405Y-93677984D01*
X145669507Y-93642075D01*
X145698297Y-93622981D01*
X145701274Y-93621136D01*
X145724218Y-93623895D01*
X145774664Y-93638538D01*
X145845959Y-93662513D01*
X145931453Y-93693266D01*
X146024493Y-93728244D01*
X146118426Y-93764893D01*
X146206601Y-93800661D01*
X146282366Y-93832994D01*
X146339069Y-93859338D01*
X146370057Y-93877142D01*
X146371543Y-93878407D01*
X146380399Y-93889294D01*
X146389157Y-93907682D01*
X146398723Y-93937606D01*
X146410004Y-93983103D01*
X146423907Y-94048209D01*
X146441337Y-94136961D01*
X146463202Y-94253393D01*
X146490409Y-94401542D01*
X146496259Y-94433618D01*
X146514626Y-94528686D01*
X146532595Y-94611565D01*
X146548431Y-94674930D01*
X146560400Y-94711458D01*
X146563190Y-94716356D01*
X146587928Y-94724427D01*
X146643210Y-94730987D01*
X146722611Y-94736033D01*
X146819704Y-94739559D01*
X146928062Y-94741561D01*
X147041260Y-94742036D01*
X147152872Y-94740977D01*
X147256471Y-94738382D01*
X147345632Y-94734246D01*
X147413928Y-94728563D01*
X147454934Y-94721331D01*
X147463326Y-94716971D01*
X147471792Y-94692698D01*
X147485565Y-94637426D01*
X147503450Y-94556662D01*
X147524252Y-94455912D01*
X147546777Y-94340683D01*
X147558582Y-94277902D01*
X147580849Y-94158787D01*
X147601021Y-94052565D01*
X147618085Y-93964427D01*
X147631031Y-93899566D01*
X147638845Y-93863174D01*
X147640578Y-93857184D01*
X147660110Y-93847061D01*
X147707157Y-93825662D01*
X147774997Y-93795839D01*
X147856909Y-93760445D01*
X147946172Y-93722332D01*
X148036065Y-93684353D01*
X148119865Y-93649360D01*
X148190853Y-93620206D01*
X148242306Y-93599743D01*
X148267503Y-93590823D01*
X148268604Y-93590657D01*
X148288481Y-93600769D01*
X148334223Y-93629117D01*
X148401283Y-93672723D01*
X148485116Y-93728606D01*
X148581174Y-93793787D01*
X148636350Y-93831679D01*
X148737519Y-93900725D01*
X148829370Y-93962050D01*
X148907256Y-94012663D01*
X148966531Y-94049571D01*
X149002549Y-94069782D01*
X149010623Y-94072701D01*
X149029416Y-94060153D01*
X149069543Y-94025463D01*
X149126507Y-93973063D01*
X149195815Y-93907384D01*
X149272969Y-93832856D01*
X149353475Y-93753913D01*
X149432837Y-93674983D01*
X149506560Y-93600500D01*
X149570148Y-93534894D01*
X149619106Y-93482596D01*
X149648939Y-93448039D01*
X149656058Y-93436478D01*
X149646047Y-93417654D01*
X149617922Y-93372631D01*
X149574546Y-93305787D01*
X149518782Y-93221499D01*
X149453494Y-93124144D01*
X149403754Y-93050707D01*
X149151449Y-92679667D01*
X149406445Y-92061095D01*
X149851069Y-91977275D01*
X150295693Y-91893454D01*
X150295693Y-90968006D01*
X149851069Y-90884186D01*
%TD*%
D11*
%TO.P,R1,2*%
%TO.N,+12V*%
X159476017Y-85556638D03*
D12*
%TO.P,R1,1*%
%TO.N,Net-(C3-Pad1)*%
X151856017Y-85556638D03*
%TD*%
D11*
%TO.P,R2,2*%
%TO.N,+12V*%
X159458035Y-82283880D03*
D12*
%TO.P,R2,1*%
%TO.N,Net-(D1-Pad2)*%
X151838035Y-82283880D03*
%TD*%
D13*
%TO.P,PWR,2*%
%TO.N,Net-(D1-Pad2)*%
X146050000Y-85090000D03*
D14*
%TO.P,PWR,1*%
%TO.N,GND*%
X146050000Y-82550000D03*
%TD*%
D15*
%TO.P,C4,2*%
%TO.N,GND*%
X158750000Y-88670000D03*
D16*
%TO.P,C4,1*%
%TO.N,+5V*%
X158750000Y-90170000D03*
%TD*%
D15*
%TO.P,C3,2*%
%TO.N,GND*%
X153670000Y-88670000D03*
D16*
%TO.P,C3,1*%
%TO.N,Net-(C3-Pad1)*%
X153670000Y-90170000D03*
%TD*%
D17*
%TO.P,J1,10*%
%TO.N,Net-(BR1-Pad4)*%
X151130000Y-114300000D03*
%TO.P,J1,9*%
X148590000Y-114300000D03*
%TO.P,J1,8*%
%TO.N,GND*%
X151130000Y-111760000D03*
%TO.P,J1,7*%
X148590000Y-111760000D03*
%TO.P,J1,6*%
X151130000Y-109220000D03*
%TO.P,J1,5*%
X148590000Y-109220000D03*
%TO.P,J1,4*%
X151130000Y-106680000D03*
%TO.P,J1,3*%
X148590000Y-106680000D03*
%TO.P,J1,2*%
%TO.N,Net-(BR1-Pad3)*%
X151130000Y-104140000D03*
D18*
%TO.P,J1,1*%
X148590000Y-104140000D03*
%TD*%
D19*
%TO.P,78L05,1*%
%TO.N,+5V*%
X153724612Y-95023392D03*
D20*
%TO.P,78L05,3*%
%TO.N,Net-(C3-Pad1)*%
X153724612Y-97563392D03*
%TO.P,78L05,2*%
%TO.N,GND*%
X153724612Y-96293392D03*
%TD*%
D17*
%TO.P,GND,2*%
%TO.N,+5V*%
X158750000Y-100330000D03*
D18*
%TO.P,GND,1*%
%TO.N,GND*%
X158750000Y-102870000D03*
%TD*%
D21*
%TO.P,C2,1*%
%TO.N,GND*%
X148590000Y-124460000D03*
D12*
%TO.P,C2,2*%
%TO.N,-12V*%
X148590000Y-121960000D03*
%TD*%
%TO.P,C1,2*%
%TO.N,GND*%
X148590000Y-78700000D03*
D21*
%TO.P,C1,1*%
%TO.N,+12V*%
X148590000Y-76200000D03*
%TD*%
D18*
%TO.P,J2,1*%
%TO.N,+12V*%
X153670000Y-76200000D03*
D17*
%TO.P,J2,2*%
%TO.N,GND*%
X153670000Y-78740000D03*
%TD*%
%TO.P,J3,2*%
%TO.N,GND*%
X158750000Y-78740000D03*
D18*
%TO.P,J3,1*%
%TO.N,+12V*%
X158750000Y-76200000D03*
%TD*%
%TO.P,J4,1*%
%TO.N,-12V*%
X158750000Y-121920000D03*
D17*
%TO.P,J4,2*%
%TO.N,GND*%
X158750000Y-124460000D03*
%TD*%
%TO.P,J5,2*%
%TO.N,GND*%
X153670000Y-124460000D03*
D18*
%TO.P,J5,1*%
%TO.N,-12V*%
X153670000Y-121920000D03*
%TD*%
M02*
