%TF.GenerationSoftware,KiCad,Pcbnew,(5.1.10-1-10_14)*%
%TF.CreationDate,2021-06-08T13:14:51-07:00*%
%TF.ProjectId,EurorackBBPS,4575726f-7261-4636-9b42-4250532e6b69,rev?*%
%TF.SameCoordinates,Original*%
%TF.FileFunction,Legend,Top*%
%TF.FilePolarity,Positive*%
%FSLAX46Y46*%
G04 Gerber Fmt 4.6, Leading zero omitted, Abs format (unit mm)*
G04 Created by KiCad (PCBNEW (5.1.10-1-10_14)) date 2021-06-08 13:14:51*
%MOMM*%
%LPD*%
G01*
G04 APERTURE LIST*
%ADD10C,0.150000*%
%ADD11C,0.250000*%
%ADD12C,0.300000*%
%ADD13C,0.120000*%
G04 APERTURE END LIST*
D10*
X148454400Y-82225141D02*
X149454400Y-82225141D01*
X149454400Y-82606094D01*
X149406781Y-82701332D01*
X149359161Y-82748951D01*
X149263923Y-82796570D01*
X149121066Y-82796570D01*
X149025828Y-82748951D01*
X148978209Y-82701332D01*
X148930590Y-82606094D01*
X148930590Y-82225141D01*
X149454400Y-83129903D02*
X148454400Y-83367998D01*
X149168685Y-83558475D01*
X148454400Y-83748951D01*
X149454400Y-83987046D01*
X148454400Y-84939427D02*
X148930590Y-84606094D01*
X148454400Y-84367998D02*
X149454400Y-84367998D01*
X149454400Y-84748951D01*
X149406781Y-84844189D01*
X149359161Y-84891808D01*
X149263923Y-84939427D01*
X149121066Y-84939427D01*
X149025828Y-84891808D01*
X148978209Y-84844189D01*
X148930590Y-84748951D01*
X148930590Y-84367998D01*
X157355155Y-98199002D02*
X158117060Y-98199002D01*
X157736108Y-98579954D02*
X157736108Y-97818050D01*
X159069441Y-97579954D02*
X158593250Y-97579954D01*
X158545631Y-98056145D01*
X158593250Y-98008526D01*
X158688489Y-97960907D01*
X158926584Y-97960907D01*
X159021822Y-98008526D01*
X159069441Y-98056145D01*
X159117060Y-98151383D01*
X159117060Y-98389478D01*
X159069441Y-98484716D01*
X159021822Y-98532335D01*
X158926584Y-98579954D01*
X158688489Y-98579954D01*
X158593250Y-98532335D01*
X158545631Y-98484716D01*
X159402774Y-97579954D02*
X159736108Y-98579954D01*
X160069441Y-97579954D01*
D11*
X156124285Y-120899523D02*
X156124285Y-121890000D01*
X155667142Y-123190000D02*
X155667142Y-122447142D01*
X155667142Y-122818571D02*
X156867142Y-122818571D01*
X156695714Y-122694761D01*
X156581428Y-122570952D01*
X156524285Y-122447142D01*
X156752857Y-123685238D02*
X156810000Y-123747142D01*
X156867142Y-123870952D01*
X156867142Y-124180476D01*
X156810000Y-124304285D01*
X156752857Y-124366190D01*
X156638571Y-124428095D01*
X156524285Y-124428095D01*
X156352857Y-124366190D01*
X155667142Y-123623333D01*
X155667142Y-124428095D01*
X156867142Y-124799523D02*
X155667142Y-125232857D01*
X156867142Y-125666190D01*
X156124285Y-74785626D02*
X156124285Y-75776103D01*
X155667142Y-75280864D02*
X156581428Y-75280864D01*
X155667142Y-77076103D02*
X155667142Y-76333245D01*
X155667142Y-76704674D02*
X156867142Y-76704674D01*
X156695714Y-76580864D01*
X156581428Y-76457055D01*
X156524285Y-76333245D01*
X156752857Y-77571341D02*
X156810000Y-77633245D01*
X156867142Y-77757055D01*
X156867142Y-78066579D01*
X156810000Y-78190388D01*
X156752857Y-78252293D01*
X156638571Y-78314198D01*
X156524285Y-78314198D01*
X156352857Y-78252293D01*
X155667142Y-77509436D01*
X155667142Y-78314198D01*
X156867142Y-78685626D02*
X155667142Y-79118960D01*
X156867142Y-79552293D01*
D12*
X145556806Y-103041428D02*
X145556806Y-103541428D01*
X144771092Y-103755714D02*
X144771092Y-103041428D01*
X146271092Y-103041428D01*
X146271092Y-103755714D01*
X144771092Y-104398571D02*
X146271092Y-104398571D01*
X146271092Y-104898571D02*
X146271092Y-105755714D01*
X144771092Y-105327142D02*
X146271092Y-105327142D01*
X144771092Y-106255714D02*
X146271092Y-106255714D01*
X145556806Y-106255714D02*
X145556806Y-107112857D01*
X144771092Y-107112857D02*
X146271092Y-107112857D01*
X145556806Y-107827142D02*
X145556806Y-108327142D01*
X144771092Y-108541428D02*
X144771092Y-107827142D01*
X146271092Y-107827142D01*
X146271092Y-108541428D01*
X144771092Y-110041428D02*
X145485378Y-109541428D01*
X144771092Y-109184285D02*
X146271092Y-109184285D01*
X146271092Y-109755714D01*
X146199664Y-109898571D01*
X146128235Y-109970000D01*
X145985378Y-110041428D01*
X145771092Y-110041428D01*
X145628235Y-109970000D01*
X145556806Y-109898571D01*
X145485378Y-109755714D01*
X145485378Y-109184285D01*
X146271092Y-111684285D02*
X144771092Y-112041428D01*
X145842521Y-112327142D01*
X144771092Y-112612857D01*
X146271092Y-112970000D01*
X145199664Y-113470000D02*
X145199664Y-114184285D01*
X144771092Y-113327142D02*
X146271092Y-113827142D01*
X144771092Y-114327142D01*
X145485378Y-115112857D02*
X144771092Y-115112857D01*
X146271092Y-114612857D02*
X145485378Y-115112857D01*
X146271092Y-115612857D01*
D13*
%TO.C,R1*%
X158936017Y-86926638D02*
X158936017Y-86596638D01*
X152396017Y-86926638D02*
X158936017Y-86926638D01*
X152396017Y-86596638D02*
X152396017Y-86926638D01*
X158936017Y-84186638D02*
X158936017Y-84516638D01*
X152396017Y-84186638D02*
X158936017Y-84186638D01*
X152396017Y-84516638D02*
X152396017Y-84186638D01*
%TO.C,R2*%
X158918035Y-83653880D02*
X158918035Y-83323880D01*
X152378035Y-83653880D02*
X158918035Y-83653880D01*
X152378035Y-83323880D02*
X152378035Y-83653880D01*
X158918035Y-80913880D02*
X158918035Y-81243880D01*
X152378035Y-80913880D02*
X158918035Y-80913880D01*
X152378035Y-81243880D02*
X152378035Y-80913880D01*
%TO.C,PWR*%
X144970000Y-82260000D02*
X144814000Y-82260000D01*
X147286000Y-82260000D02*
X147130000Y-82260000D01*
X144970163Y-84861130D02*
G75*
G02*
X144970000Y-82779039I1079837J1041130D01*
G01*
X147129837Y-84861130D02*
G75*
G03*
X147130000Y-82779039I-1079837J1041130D01*
G01*
X144971392Y-85492335D02*
G75*
G02*
X144814484Y-82260000I1078608J1672335D01*
G01*
X147128608Y-85492335D02*
G75*
G03*
X147285516Y-82260000I-1078608J1672335D01*
G01*
%TO.C,C4*%
X157355000Y-91489801D02*
X157755000Y-91489801D01*
X157555000Y-91689801D02*
X157555000Y-91289801D01*
X158380000Y-87339000D02*
X159120000Y-87339000D01*
X158213000Y-87379000D02*
X159287000Y-87379000D01*
X158086000Y-87419000D02*
X159414000Y-87419000D01*
X157982000Y-87459000D02*
X159518000Y-87459000D01*
X157891000Y-87499000D02*
X159609000Y-87499000D01*
X157810000Y-87539000D02*
X159690000Y-87539000D01*
X157737000Y-87579000D02*
X159763000Y-87579000D01*
X157670000Y-87619000D02*
X159830000Y-87619000D01*
X157608000Y-87659000D02*
X159892000Y-87659000D01*
X157550000Y-87699000D02*
X159950000Y-87699000D01*
X157496000Y-87739000D02*
X160004000Y-87739000D01*
X157446000Y-87779000D02*
X160054000Y-87779000D01*
X157399000Y-87819000D02*
X160101000Y-87819000D01*
X159590000Y-87859000D02*
X160146000Y-87859000D01*
X157354000Y-87859000D02*
X157910000Y-87859000D01*
X159590000Y-87899000D02*
X160188000Y-87899000D01*
X157312000Y-87899000D02*
X157910000Y-87899000D01*
X159590000Y-87939000D02*
X160228000Y-87939000D01*
X157272000Y-87939000D02*
X157910000Y-87939000D01*
X159590000Y-87979000D02*
X160266000Y-87979000D01*
X157234000Y-87979000D02*
X157910000Y-87979000D01*
X159590000Y-88019000D02*
X160302000Y-88019000D01*
X157198000Y-88019000D02*
X157910000Y-88019000D01*
X159590000Y-88059000D02*
X160337000Y-88059000D01*
X157163000Y-88059000D02*
X157910000Y-88059000D01*
X159590000Y-88099000D02*
X160369000Y-88099000D01*
X157131000Y-88099000D02*
X157910000Y-88099000D01*
X159590000Y-88139000D02*
X160400000Y-88139000D01*
X157100000Y-88139000D02*
X157910000Y-88139000D01*
X159590000Y-88179000D02*
X160430000Y-88179000D01*
X157070000Y-88179000D02*
X157910000Y-88179000D01*
X159590000Y-88219000D02*
X160458000Y-88219000D01*
X157042000Y-88219000D02*
X157910000Y-88219000D01*
X159590000Y-88259000D02*
X160485000Y-88259000D01*
X157015000Y-88259000D02*
X157910000Y-88259000D01*
X159590000Y-88299000D02*
X160510000Y-88299000D01*
X156990000Y-88299000D02*
X157910000Y-88299000D01*
X159590000Y-88339000D02*
X160535000Y-88339000D01*
X156965000Y-88339000D02*
X157910000Y-88339000D01*
X159590000Y-88379000D02*
X160558000Y-88379000D01*
X156942000Y-88379000D02*
X157910000Y-88379000D01*
X159590000Y-88419000D02*
X160580000Y-88419000D01*
X156920000Y-88419000D02*
X157910000Y-88419000D01*
X159590000Y-88459000D02*
X160601000Y-88459000D01*
X156899000Y-88459000D02*
X157910000Y-88459000D01*
X159590000Y-88499000D02*
X160620000Y-88499000D01*
X156880000Y-88499000D02*
X157910000Y-88499000D01*
X159590000Y-88539000D02*
X160639000Y-88539000D01*
X156861000Y-88539000D02*
X157910000Y-88539000D01*
X159590000Y-88579000D02*
X160657000Y-88579000D01*
X156843000Y-88579000D02*
X157910000Y-88579000D01*
X159590000Y-88619000D02*
X160674000Y-88619000D01*
X156826000Y-88619000D02*
X157910000Y-88619000D01*
X159590000Y-88659000D02*
X160690000Y-88659000D01*
X156810000Y-88659000D02*
X157910000Y-88659000D01*
X159590000Y-88699000D02*
X160704000Y-88699000D01*
X156796000Y-88699000D02*
X157910000Y-88699000D01*
X159590000Y-88740000D02*
X160718000Y-88740000D01*
X156782000Y-88740000D02*
X157910000Y-88740000D01*
X159590000Y-88780000D02*
X160732000Y-88780000D01*
X156768000Y-88780000D02*
X157910000Y-88780000D01*
X159590000Y-88820000D02*
X160744000Y-88820000D01*
X156756000Y-88820000D02*
X157910000Y-88820000D01*
X159590000Y-88860000D02*
X160755000Y-88860000D01*
X156745000Y-88860000D02*
X157910000Y-88860000D01*
X159590000Y-88900000D02*
X160766000Y-88900000D01*
X156734000Y-88900000D02*
X157910000Y-88900000D01*
X159590000Y-88940000D02*
X160775000Y-88940000D01*
X156725000Y-88940000D02*
X157910000Y-88940000D01*
X159590000Y-88980000D02*
X160784000Y-88980000D01*
X156716000Y-88980000D02*
X157910000Y-88980000D01*
X159590000Y-89020000D02*
X160792000Y-89020000D01*
X156708000Y-89020000D02*
X157910000Y-89020000D01*
X159590000Y-89060000D02*
X160800000Y-89060000D01*
X156700000Y-89060000D02*
X157910000Y-89060000D01*
X159590000Y-89100000D02*
X160806000Y-89100000D01*
X156694000Y-89100000D02*
X157910000Y-89100000D01*
X159590000Y-89140000D02*
X160812000Y-89140000D01*
X156688000Y-89140000D02*
X157910000Y-89140000D01*
X159590000Y-89180000D02*
X160817000Y-89180000D01*
X156683000Y-89180000D02*
X157910000Y-89180000D01*
X159590000Y-89220000D02*
X160821000Y-89220000D01*
X156679000Y-89220000D02*
X157910000Y-89220000D01*
X159590000Y-89260000D02*
X160824000Y-89260000D01*
X156676000Y-89260000D02*
X157910000Y-89260000D01*
X159590000Y-89300000D02*
X160827000Y-89300000D01*
X156673000Y-89300000D02*
X157910000Y-89300000D01*
X156671000Y-89340000D02*
X157910000Y-89340000D01*
X159590000Y-89340000D02*
X160829000Y-89340000D01*
X156670000Y-89380000D02*
X157910000Y-89380000D01*
X159590000Y-89380000D02*
X160830000Y-89380000D01*
X156670000Y-89420000D02*
X157910000Y-89420000D01*
X159590000Y-89420000D02*
X160830000Y-89420000D01*
X160870000Y-89420000D02*
G75*
G03*
X160870000Y-89420000I-2120000J0D01*
G01*
%TO.C,C3*%
X152275000Y-91489801D02*
X152675000Y-91489801D01*
X152475000Y-91689801D02*
X152475000Y-91289801D01*
X153300000Y-87339000D02*
X154040000Y-87339000D01*
X153133000Y-87379000D02*
X154207000Y-87379000D01*
X153006000Y-87419000D02*
X154334000Y-87419000D01*
X152902000Y-87459000D02*
X154438000Y-87459000D01*
X152811000Y-87499000D02*
X154529000Y-87499000D01*
X152730000Y-87539000D02*
X154610000Y-87539000D01*
X152657000Y-87579000D02*
X154683000Y-87579000D01*
X152590000Y-87619000D02*
X154750000Y-87619000D01*
X152528000Y-87659000D02*
X154812000Y-87659000D01*
X152470000Y-87699000D02*
X154870000Y-87699000D01*
X152416000Y-87739000D02*
X154924000Y-87739000D01*
X152366000Y-87779000D02*
X154974000Y-87779000D01*
X152319000Y-87819000D02*
X155021000Y-87819000D01*
X154510000Y-87859000D02*
X155066000Y-87859000D01*
X152274000Y-87859000D02*
X152830000Y-87859000D01*
X154510000Y-87899000D02*
X155108000Y-87899000D01*
X152232000Y-87899000D02*
X152830000Y-87899000D01*
X154510000Y-87939000D02*
X155148000Y-87939000D01*
X152192000Y-87939000D02*
X152830000Y-87939000D01*
X154510000Y-87979000D02*
X155186000Y-87979000D01*
X152154000Y-87979000D02*
X152830000Y-87979000D01*
X154510000Y-88019000D02*
X155222000Y-88019000D01*
X152118000Y-88019000D02*
X152830000Y-88019000D01*
X154510000Y-88059000D02*
X155257000Y-88059000D01*
X152083000Y-88059000D02*
X152830000Y-88059000D01*
X154510000Y-88099000D02*
X155289000Y-88099000D01*
X152051000Y-88099000D02*
X152830000Y-88099000D01*
X154510000Y-88139000D02*
X155320000Y-88139000D01*
X152020000Y-88139000D02*
X152830000Y-88139000D01*
X154510000Y-88179000D02*
X155350000Y-88179000D01*
X151990000Y-88179000D02*
X152830000Y-88179000D01*
X154510000Y-88219000D02*
X155378000Y-88219000D01*
X151962000Y-88219000D02*
X152830000Y-88219000D01*
X154510000Y-88259000D02*
X155405000Y-88259000D01*
X151935000Y-88259000D02*
X152830000Y-88259000D01*
X154510000Y-88299000D02*
X155430000Y-88299000D01*
X151910000Y-88299000D02*
X152830000Y-88299000D01*
X154510000Y-88339000D02*
X155455000Y-88339000D01*
X151885000Y-88339000D02*
X152830000Y-88339000D01*
X154510000Y-88379000D02*
X155478000Y-88379000D01*
X151862000Y-88379000D02*
X152830000Y-88379000D01*
X154510000Y-88419000D02*
X155500000Y-88419000D01*
X151840000Y-88419000D02*
X152830000Y-88419000D01*
X154510000Y-88459000D02*
X155521000Y-88459000D01*
X151819000Y-88459000D02*
X152830000Y-88459000D01*
X154510000Y-88499000D02*
X155540000Y-88499000D01*
X151800000Y-88499000D02*
X152830000Y-88499000D01*
X154510000Y-88539000D02*
X155559000Y-88539000D01*
X151781000Y-88539000D02*
X152830000Y-88539000D01*
X154510000Y-88579000D02*
X155577000Y-88579000D01*
X151763000Y-88579000D02*
X152830000Y-88579000D01*
X154510000Y-88619000D02*
X155594000Y-88619000D01*
X151746000Y-88619000D02*
X152830000Y-88619000D01*
X154510000Y-88659000D02*
X155610000Y-88659000D01*
X151730000Y-88659000D02*
X152830000Y-88659000D01*
X154510000Y-88699000D02*
X155624000Y-88699000D01*
X151716000Y-88699000D02*
X152830000Y-88699000D01*
X154510000Y-88740000D02*
X155638000Y-88740000D01*
X151702000Y-88740000D02*
X152830000Y-88740000D01*
X154510000Y-88780000D02*
X155652000Y-88780000D01*
X151688000Y-88780000D02*
X152830000Y-88780000D01*
X154510000Y-88820000D02*
X155664000Y-88820000D01*
X151676000Y-88820000D02*
X152830000Y-88820000D01*
X154510000Y-88860000D02*
X155675000Y-88860000D01*
X151665000Y-88860000D02*
X152830000Y-88860000D01*
X154510000Y-88900000D02*
X155686000Y-88900000D01*
X151654000Y-88900000D02*
X152830000Y-88900000D01*
X154510000Y-88940000D02*
X155695000Y-88940000D01*
X151645000Y-88940000D02*
X152830000Y-88940000D01*
X154510000Y-88980000D02*
X155704000Y-88980000D01*
X151636000Y-88980000D02*
X152830000Y-88980000D01*
X154510000Y-89020000D02*
X155712000Y-89020000D01*
X151628000Y-89020000D02*
X152830000Y-89020000D01*
X154510000Y-89060000D02*
X155720000Y-89060000D01*
X151620000Y-89060000D02*
X152830000Y-89060000D01*
X154510000Y-89100000D02*
X155726000Y-89100000D01*
X151614000Y-89100000D02*
X152830000Y-89100000D01*
X154510000Y-89140000D02*
X155732000Y-89140000D01*
X151608000Y-89140000D02*
X152830000Y-89140000D01*
X154510000Y-89180000D02*
X155737000Y-89180000D01*
X151603000Y-89180000D02*
X152830000Y-89180000D01*
X154510000Y-89220000D02*
X155741000Y-89220000D01*
X151599000Y-89220000D02*
X152830000Y-89220000D01*
X154510000Y-89260000D02*
X155744000Y-89260000D01*
X151596000Y-89260000D02*
X152830000Y-89260000D01*
X154510000Y-89300000D02*
X155747000Y-89300000D01*
X151593000Y-89300000D02*
X152830000Y-89300000D01*
X151591000Y-89340000D02*
X152830000Y-89340000D01*
X154510000Y-89340000D02*
X155749000Y-89340000D01*
X151590000Y-89380000D02*
X152830000Y-89380000D01*
X154510000Y-89380000D02*
X155750000Y-89380000D01*
X151590000Y-89420000D02*
X152830000Y-89420000D01*
X154510000Y-89420000D02*
X155750000Y-89420000D01*
X155790000Y-89420000D02*
G75*
G03*
X155790000Y-89420000I-2120000J0D01*
G01*
%TO.C,MB1S*%
X149125000Y-89430000D02*
X149125000Y-87965000D01*
X149480000Y-89430000D02*
X149125000Y-89430000D01*
X149480000Y-91440000D02*
X149480000Y-89430000D01*
X149480000Y-93450000D02*
X149125000Y-93450000D01*
X149480000Y-91440000D02*
X149480000Y-93450000D01*
X145160000Y-89430000D02*
X145515000Y-89430000D01*
X145160000Y-91440000D02*
X145160000Y-89430000D01*
X145160000Y-93450000D02*
X145515000Y-93450000D01*
X145160000Y-91440000D02*
X145160000Y-93450000D01*
%TO.C,J1*%
X147260000Y-115630000D02*
X152460000Y-115630000D01*
X147260000Y-105410000D02*
X147260000Y-115630000D01*
X152460000Y-102810000D02*
X152460000Y-115630000D01*
X147260000Y-105410000D02*
X149860000Y-105410000D01*
X149860000Y-105410000D02*
X149860000Y-102810000D01*
X149860000Y-102810000D02*
X152460000Y-102810000D01*
X147260000Y-104140000D02*
X147260000Y-102810000D01*
X147260000Y-102810000D02*
X148590000Y-102810000D01*
%TO.C,78L05*%
X151874612Y-94493392D02*
X151874612Y-98093392D01*
X151886134Y-98131870D02*
G75*
G03*
X156324612Y-96293392I1838478J1838478D01*
G01*
X151886134Y-94454914D02*
G75*
G02*
X156324612Y-96293392I1838478J-1838478D01*
G01*
%TO.C,GND*%
X160080000Y-99000000D02*
X157420000Y-99000000D01*
X160080000Y-101600000D02*
X160080000Y-99000000D01*
X157420000Y-101600000D02*
X157420000Y-99000000D01*
X160080000Y-101600000D02*
X157420000Y-101600000D01*
X160080000Y-102870000D02*
X160080000Y-104200000D01*
X160080000Y-104200000D02*
X158750000Y-104200000D01*
%TO.C,C2*%
X146865000Y-125764775D02*
X147365000Y-125764775D01*
X147115000Y-126014775D02*
X147115000Y-125514775D01*
X148306000Y-120609000D02*
X148874000Y-120609000D01*
X148072000Y-120649000D02*
X149108000Y-120649000D01*
X147913000Y-120689000D02*
X149267000Y-120689000D01*
X147785000Y-120729000D02*
X149395000Y-120729000D01*
X147675000Y-120769000D02*
X149505000Y-120769000D01*
X147579000Y-120809000D02*
X149601000Y-120809000D01*
X147492000Y-120849000D02*
X149688000Y-120849000D01*
X147412000Y-120889000D02*
X149768000Y-120889000D01*
X149630000Y-120929000D02*
X149841000Y-120929000D01*
X147339000Y-120929000D02*
X147550000Y-120929000D01*
X149630000Y-120969000D02*
X149909000Y-120969000D01*
X147271000Y-120969000D02*
X147550000Y-120969000D01*
X149630000Y-121009000D02*
X149973000Y-121009000D01*
X147207000Y-121009000D02*
X147550000Y-121009000D01*
X149630000Y-121049000D02*
X150033000Y-121049000D01*
X147147000Y-121049000D02*
X147550000Y-121049000D01*
X149630000Y-121089000D02*
X150090000Y-121089000D01*
X147090000Y-121089000D02*
X147550000Y-121089000D01*
X149630000Y-121129000D02*
X150144000Y-121129000D01*
X147036000Y-121129000D02*
X147550000Y-121129000D01*
X149630000Y-121169000D02*
X150195000Y-121169000D01*
X146985000Y-121169000D02*
X147550000Y-121169000D01*
X149630000Y-121209000D02*
X150243000Y-121209000D01*
X146937000Y-121209000D02*
X147550000Y-121209000D01*
X149630000Y-121249000D02*
X150289000Y-121249000D01*
X146891000Y-121249000D02*
X147550000Y-121249000D01*
X149630000Y-121289000D02*
X150333000Y-121289000D01*
X146847000Y-121289000D02*
X147550000Y-121289000D01*
X149630000Y-121329000D02*
X150375000Y-121329000D01*
X146805000Y-121329000D02*
X147550000Y-121329000D01*
X149630000Y-121369000D02*
X150416000Y-121369000D01*
X146764000Y-121369000D02*
X147550000Y-121369000D01*
X149630000Y-121409000D02*
X150454000Y-121409000D01*
X146726000Y-121409000D02*
X147550000Y-121409000D01*
X149630000Y-121449000D02*
X150491000Y-121449000D01*
X146689000Y-121449000D02*
X147550000Y-121449000D01*
X149630000Y-121489000D02*
X150527000Y-121489000D01*
X146653000Y-121489000D02*
X147550000Y-121489000D01*
X149630000Y-121529000D02*
X150561000Y-121529000D01*
X146619000Y-121529000D02*
X147550000Y-121529000D01*
X149630000Y-121569000D02*
X150594000Y-121569000D01*
X146586000Y-121569000D02*
X147550000Y-121569000D01*
X149630000Y-121609000D02*
X150625000Y-121609000D01*
X146555000Y-121609000D02*
X147550000Y-121609000D01*
X149630000Y-121649000D02*
X150655000Y-121649000D01*
X146525000Y-121649000D02*
X147550000Y-121649000D01*
X149630000Y-121689000D02*
X150685000Y-121689000D01*
X146495000Y-121689000D02*
X147550000Y-121689000D01*
X149630000Y-121729000D02*
X150712000Y-121729000D01*
X146468000Y-121729000D02*
X147550000Y-121729000D01*
X149630000Y-121769000D02*
X150739000Y-121769000D01*
X146441000Y-121769000D02*
X147550000Y-121769000D01*
X149630000Y-121809000D02*
X150765000Y-121809000D01*
X146415000Y-121809000D02*
X147550000Y-121809000D01*
X149630000Y-121849000D02*
X150790000Y-121849000D01*
X146390000Y-121849000D02*
X147550000Y-121849000D01*
X149630000Y-121889000D02*
X150814000Y-121889000D01*
X146366000Y-121889000D02*
X147550000Y-121889000D01*
X149630000Y-121929000D02*
X150837000Y-121929000D01*
X146343000Y-121929000D02*
X147550000Y-121929000D01*
X149630000Y-121969000D02*
X150858000Y-121969000D01*
X146322000Y-121969000D02*
X147550000Y-121969000D01*
X149630000Y-122009000D02*
X150880000Y-122009000D01*
X146300000Y-122009000D02*
X147550000Y-122009000D01*
X149630000Y-122049000D02*
X150900000Y-122049000D01*
X146280000Y-122049000D02*
X147550000Y-122049000D01*
X149630000Y-122089000D02*
X150919000Y-122089000D01*
X146261000Y-122089000D02*
X147550000Y-122089000D01*
X149630000Y-122129000D02*
X150938000Y-122129000D01*
X146242000Y-122129000D02*
X147550000Y-122129000D01*
X149630000Y-122169000D02*
X150955000Y-122169000D01*
X146225000Y-122169000D02*
X147550000Y-122169000D01*
X149630000Y-122209000D02*
X150972000Y-122209000D01*
X146208000Y-122209000D02*
X147550000Y-122209000D01*
X149630000Y-122249000D02*
X150988000Y-122249000D01*
X146192000Y-122249000D02*
X147550000Y-122249000D01*
X149630000Y-122289000D02*
X151004000Y-122289000D01*
X146176000Y-122289000D02*
X147550000Y-122289000D01*
X149630000Y-122329000D02*
X151018000Y-122329000D01*
X146162000Y-122329000D02*
X147550000Y-122329000D01*
X149630000Y-122369000D02*
X151032000Y-122369000D01*
X146148000Y-122369000D02*
X147550000Y-122369000D01*
X149630000Y-122409000D02*
X151045000Y-122409000D01*
X146135000Y-122409000D02*
X147550000Y-122409000D01*
X149630000Y-122449000D02*
X151058000Y-122449000D01*
X146122000Y-122449000D02*
X147550000Y-122449000D01*
X149630000Y-122489000D02*
X151070000Y-122489000D01*
X146110000Y-122489000D02*
X147550000Y-122489000D01*
X149630000Y-122530000D02*
X151081000Y-122530000D01*
X146099000Y-122530000D02*
X147550000Y-122530000D01*
X149630000Y-122570000D02*
X151091000Y-122570000D01*
X146089000Y-122570000D02*
X147550000Y-122570000D01*
X149630000Y-122610000D02*
X151101000Y-122610000D01*
X146079000Y-122610000D02*
X147550000Y-122610000D01*
X149630000Y-122650000D02*
X151110000Y-122650000D01*
X146070000Y-122650000D02*
X147550000Y-122650000D01*
X149630000Y-122690000D02*
X151118000Y-122690000D01*
X146062000Y-122690000D02*
X147550000Y-122690000D01*
X149630000Y-122730000D02*
X151126000Y-122730000D01*
X146054000Y-122730000D02*
X147550000Y-122730000D01*
X149630000Y-122770000D02*
X151133000Y-122770000D01*
X146047000Y-122770000D02*
X147550000Y-122770000D01*
X149630000Y-122810000D02*
X151140000Y-122810000D01*
X146040000Y-122810000D02*
X147550000Y-122810000D01*
X149630000Y-122850000D02*
X151146000Y-122850000D01*
X146034000Y-122850000D02*
X147550000Y-122850000D01*
X149630000Y-122890000D02*
X151151000Y-122890000D01*
X146029000Y-122890000D02*
X147550000Y-122890000D01*
X149630000Y-122930000D02*
X151155000Y-122930000D01*
X146025000Y-122930000D02*
X147550000Y-122930000D01*
X149630000Y-122970000D02*
X151159000Y-122970000D01*
X146021000Y-122970000D02*
X147550000Y-122970000D01*
X146017000Y-123010000D02*
X151163000Y-123010000D01*
X146014000Y-123050000D02*
X151166000Y-123050000D01*
X146012000Y-123090000D02*
X151168000Y-123090000D01*
X146011000Y-123130000D02*
X151169000Y-123130000D01*
X146010000Y-123170000D02*
X151170000Y-123170000D01*
X146010000Y-123210000D02*
X151170000Y-123210000D01*
X151210000Y-123210000D02*
G75*
G03*
X151210000Y-123210000I-2620000J0D01*
G01*
%TO.C,C1*%
X151210000Y-77450000D02*
G75*
G03*
X151210000Y-77450000I-2620000J0D01*
G01*
X151170000Y-77450000D02*
X146010000Y-77450000D01*
X151170000Y-77490000D02*
X146010000Y-77490000D01*
X151169000Y-77530000D02*
X146011000Y-77530000D01*
X151168000Y-77570000D02*
X146012000Y-77570000D01*
X151166000Y-77610000D02*
X146014000Y-77610000D01*
X151163000Y-77650000D02*
X146017000Y-77650000D01*
X151159000Y-77690000D02*
X149630000Y-77690000D01*
X147550000Y-77690000D02*
X146021000Y-77690000D01*
X151155000Y-77730000D02*
X149630000Y-77730000D01*
X147550000Y-77730000D02*
X146025000Y-77730000D01*
X151151000Y-77770000D02*
X149630000Y-77770000D01*
X147550000Y-77770000D02*
X146029000Y-77770000D01*
X151146000Y-77810000D02*
X149630000Y-77810000D01*
X147550000Y-77810000D02*
X146034000Y-77810000D01*
X151140000Y-77850000D02*
X149630000Y-77850000D01*
X147550000Y-77850000D02*
X146040000Y-77850000D01*
X151133000Y-77890000D02*
X149630000Y-77890000D01*
X147550000Y-77890000D02*
X146047000Y-77890000D01*
X151126000Y-77930000D02*
X149630000Y-77930000D01*
X147550000Y-77930000D02*
X146054000Y-77930000D01*
X151118000Y-77970000D02*
X149630000Y-77970000D01*
X147550000Y-77970000D02*
X146062000Y-77970000D01*
X151110000Y-78010000D02*
X149630000Y-78010000D01*
X147550000Y-78010000D02*
X146070000Y-78010000D01*
X151101000Y-78050000D02*
X149630000Y-78050000D01*
X147550000Y-78050000D02*
X146079000Y-78050000D01*
X151091000Y-78090000D02*
X149630000Y-78090000D01*
X147550000Y-78090000D02*
X146089000Y-78090000D01*
X151081000Y-78130000D02*
X149630000Y-78130000D01*
X147550000Y-78130000D02*
X146099000Y-78130000D01*
X151070000Y-78171000D02*
X149630000Y-78171000D01*
X147550000Y-78171000D02*
X146110000Y-78171000D01*
X151058000Y-78211000D02*
X149630000Y-78211000D01*
X147550000Y-78211000D02*
X146122000Y-78211000D01*
X151045000Y-78251000D02*
X149630000Y-78251000D01*
X147550000Y-78251000D02*
X146135000Y-78251000D01*
X151032000Y-78291000D02*
X149630000Y-78291000D01*
X147550000Y-78291000D02*
X146148000Y-78291000D01*
X151018000Y-78331000D02*
X149630000Y-78331000D01*
X147550000Y-78331000D02*
X146162000Y-78331000D01*
X151004000Y-78371000D02*
X149630000Y-78371000D01*
X147550000Y-78371000D02*
X146176000Y-78371000D01*
X150988000Y-78411000D02*
X149630000Y-78411000D01*
X147550000Y-78411000D02*
X146192000Y-78411000D01*
X150972000Y-78451000D02*
X149630000Y-78451000D01*
X147550000Y-78451000D02*
X146208000Y-78451000D01*
X150955000Y-78491000D02*
X149630000Y-78491000D01*
X147550000Y-78491000D02*
X146225000Y-78491000D01*
X150938000Y-78531000D02*
X149630000Y-78531000D01*
X147550000Y-78531000D02*
X146242000Y-78531000D01*
X150919000Y-78571000D02*
X149630000Y-78571000D01*
X147550000Y-78571000D02*
X146261000Y-78571000D01*
X150900000Y-78611000D02*
X149630000Y-78611000D01*
X147550000Y-78611000D02*
X146280000Y-78611000D01*
X150880000Y-78651000D02*
X149630000Y-78651000D01*
X147550000Y-78651000D02*
X146300000Y-78651000D01*
X150858000Y-78691000D02*
X149630000Y-78691000D01*
X147550000Y-78691000D02*
X146322000Y-78691000D01*
X150837000Y-78731000D02*
X149630000Y-78731000D01*
X147550000Y-78731000D02*
X146343000Y-78731000D01*
X150814000Y-78771000D02*
X149630000Y-78771000D01*
X147550000Y-78771000D02*
X146366000Y-78771000D01*
X150790000Y-78811000D02*
X149630000Y-78811000D01*
X147550000Y-78811000D02*
X146390000Y-78811000D01*
X150765000Y-78851000D02*
X149630000Y-78851000D01*
X147550000Y-78851000D02*
X146415000Y-78851000D01*
X150739000Y-78891000D02*
X149630000Y-78891000D01*
X147550000Y-78891000D02*
X146441000Y-78891000D01*
X150712000Y-78931000D02*
X149630000Y-78931000D01*
X147550000Y-78931000D02*
X146468000Y-78931000D01*
X150685000Y-78971000D02*
X149630000Y-78971000D01*
X147550000Y-78971000D02*
X146495000Y-78971000D01*
X150655000Y-79011000D02*
X149630000Y-79011000D01*
X147550000Y-79011000D02*
X146525000Y-79011000D01*
X150625000Y-79051000D02*
X149630000Y-79051000D01*
X147550000Y-79051000D02*
X146555000Y-79051000D01*
X150594000Y-79091000D02*
X149630000Y-79091000D01*
X147550000Y-79091000D02*
X146586000Y-79091000D01*
X150561000Y-79131000D02*
X149630000Y-79131000D01*
X147550000Y-79131000D02*
X146619000Y-79131000D01*
X150527000Y-79171000D02*
X149630000Y-79171000D01*
X147550000Y-79171000D02*
X146653000Y-79171000D01*
X150491000Y-79211000D02*
X149630000Y-79211000D01*
X147550000Y-79211000D02*
X146689000Y-79211000D01*
X150454000Y-79251000D02*
X149630000Y-79251000D01*
X147550000Y-79251000D02*
X146726000Y-79251000D01*
X150416000Y-79291000D02*
X149630000Y-79291000D01*
X147550000Y-79291000D02*
X146764000Y-79291000D01*
X150375000Y-79331000D02*
X149630000Y-79331000D01*
X147550000Y-79331000D02*
X146805000Y-79331000D01*
X150333000Y-79371000D02*
X149630000Y-79371000D01*
X147550000Y-79371000D02*
X146847000Y-79371000D01*
X150289000Y-79411000D02*
X149630000Y-79411000D01*
X147550000Y-79411000D02*
X146891000Y-79411000D01*
X150243000Y-79451000D02*
X149630000Y-79451000D01*
X147550000Y-79451000D02*
X146937000Y-79451000D01*
X150195000Y-79491000D02*
X149630000Y-79491000D01*
X147550000Y-79491000D02*
X146985000Y-79491000D01*
X150144000Y-79531000D02*
X149630000Y-79531000D01*
X147550000Y-79531000D02*
X147036000Y-79531000D01*
X150090000Y-79571000D02*
X149630000Y-79571000D01*
X147550000Y-79571000D02*
X147090000Y-79571000D01*
X150033000Y-79611000D02*
X149630000Y-79611000D01*
X147550000Y-79611000D02*
X147147000Y-79611000D01*
X149973000Y-79651000D02*
X149630000Y-79651000D01*
X147550000Y-79651000D02*
X147207000Y-79651000D01*
X149909000Y-79691000D02*
X149630000Y-79691000D01*
X147550000Y-79691000D02*
X147271000Y-79691000D01*
X149841000Y-79731000D02*
X149630000Y-79731000D01*
X147550000Y-79731000D02*
X147339000Y-79731000D01*
X149768000Y-79771000D02*
X147412000Y-79771000D01*
X149688000Y-79811000D02*
X147492000Y-79811000D01*
X149601000Y-79851000D02*
X147579000Y-79851000D01*
X149505000Y-79891000D02*
X147675000Y-79891000D01*
X149395000Y-79931000D02*
X147785000Y-79931000D01*
X149267000Y-79971000D02*
X147913000Y-79971000D01*
X149108000Y-80011000D02*
X148072000Y-80011000D01*
X148874000Y-80051000D02*
X148306000Y-80051000D01*
X150065000Y-74645225D02*
X150065000Y-75145225D01*
X150315000Y-74895225D02*
X149815000Y-74895225D01*
%TO.C,*%
D10*
%TO.C,R1*%
X155644479Y-86140713D02*
X155311146Y-85664523D01*
X155073050Y-86140713D02*
X155073050Y-85140713D01*
X155454003Y-85140713D01*
X155549241Y-85188333D01*
X155596860Y-85235952D01*
X155644479Y-85331190D01*
X155644479Y-85474047D01*
X155596860Y-85569285D01*
X155549241Y-85616904D01*
X155454003Y-85664523D01*
X155073050Y-85664523D01*
X156596860Y-86140713D02*
X156025431Y-86140713D01*
X156311146Y-86140713D02*
X156311146Y-85140713D01*
X156215907Y-85283571D01*
X156120669Y-85378809D01*
X156025431Y-85426428D01*
%TO.C,R2*%
X155683023Y-82600478D02*
X155349690Y-82124288D01*
X155111594Y-82600478D02*
X155111594Y-81600478D01*
X155492547Y-81600478D01*
X155587785Y-81648098D01*
X155635404Y-81695717D01*
X155683023Y-81790955D01*
X155683023Y-81933812D01*
X155635404Y-82029050D01*
X155587785Y-82076669D01*
X155492547Y-82124288D01*
X155111594Y-82124288D01*
X156063975Y-81695717D02*
X156111594Y-81648098D01*
X156206832Y-81600478D01*
X156444928Y-81600478D01*
X156540166Y-81648098D01*
X156587785Y-81695717D01*
X156635404Y-81790955D01*
X156635404Y-81886193D01*
X156587785Y-82029050D01*
X156016356Y-82600478D01*
X156635404Y-82600478D01*
%TO.C,*%
%TO.C,C4*%
X159369010Y-92861373D02*
X159416629Y-92908992D01*
X159464248Y-93051849D01*
X159464248Y-93147087D01*
X159416629Y-93289945D01*
X159321391Y-93385183D01*
X159226153Y-93432802D01*
X159035677Y-93480421D01*
X158892820Y-93480421D01*
X158702344Y-93432802D01*
X158607106Y-93385183D01*
X158511868Y-93289945D01*
X158464248Y-93147087D01*
X158464248Y-93051849D01*
X158511868Y-92908992D01*
X158559487Y-92861373D01*
X158797582Y-92004230D02*
X159464248Y-92004230D01*
X158416629Y-92242326D02*
X159130915Y-92480421D01*
X159130915Y-91861373D01*
X161009302Y-92885353D02*
X161009302Y-93456781D01*
X161009302Y-93171067D02*
X160009302Y-93171067D01*
X160152160Y-93266305D01*
X160247398Y-93361543D01*
X160295017Y-93456781D01*
X160009302Y-92266305D02*
X160009302Y-92171067D01*
X160056922Y-92075829D01*
X160104541Y-92028210D01*
X160199779Y-91980591D01*
X160390255Y-91932972D01*
X160628350Y-91932972D01*
X160818826Y-91980591D01*
X160914064Y-92028210D01*
X160961683Y-92075829D01*
X161009302Y-92171067D01*
X161009302Y-92266305D01*
X160961683Y-92361543D01*
X160914064Y-92409162D01*
X160818826Y-92456781D01*
X160628350Y-92504400D01*
X160390255Y-92504400D01*
X160199779Y-92456781D01*
X160104541Y-92409162D01*
X160056922Y-92361543D01*
X160009302Y-92266305D01*
X160342636Y-91075829D02*
X161009302Y-91075829D01*
X160342636Y-91504400D02*
X160866445Y-91504400D01*
X160961683Y-91456781D01*
X161009302Y-91361543D01*
X161009302Y-91218686D01*
X160961683Y-91123448D01*
X160914064Y-91075829D01*
%TO.C,C3*%
X154112058Y-92691794D02*
X154159677Y-92739413D01*
X154207296Y-92882270D01*
X154207296Y-92977508D01*
X154159677Y-93120366D01*
X154064439Y-93215604D01*
X153969201Y-93263223D01*
X153778725Y-93310842D01*
X153635868Y-93310842D01*
X153445392Y-93263223D01*
X153350154Y-93215604D01*
X153254916Y-93120366D01*
X153207296Y-92977508D01*
X153207296Y-92882270D01*
X153254916Y-92739413D01*
X153302535Y-92691794D01*
X153207296Y-92358461D02*
X153207296Y-91739413D01*
X153588249Y-92072747D01*
X153588249Y-91929889D01*
X153635868Y-91834651D01*
X153683487Y-91787032D01*
X153778725Y-91739413D01*
X154016820Y-91739413D01*
X154112058Y-91787032D01*
X154159677Y-91834651D01*
X154207296Y-91929889D01*
X154207296Y-92215604D01*
X154159677Y-92310842D01*
X154112058Y-92358461D01*
X156148034Y-92376616D02*
X156148034Y-92948044D01*
X156148034Y-92662330D02*
X155148034Y-92662330D01*
X155290892Y-92757568D01*
X155386130Y-92852806D01*
X155433749Y-92948044D01*
X155148034Y-91757568D02*
X155148034Y-91662330D01*
X155195654Y-91567092D01*
X155243273Y-91519473D01*
X155338511Y-91471854D01*
X155528987Y-91424235D01*
X155767082Y-91424235D01*
X155957558Y-91471854D01*
X156052796Y-91519473D01*
X156100415Y-91567092D01*
X156148034Y-91662330D01*
X156148034Y-91757568D01*
X156100415Y-91852806D01*
X156052796Y-91900425D01*
X155957558Y-91948044D01*
X155767082Y-91995663D01*
X155528987Y-91995663D01*
X155338511Y-91948044D01*
X155243273Y-91900425D01*
X155195654Y-91852806D01*
X155148034Y-91757568D01*
X155481368Y-90567092D02*
X156148034Y-90567092D01*
X155481368Y-90995663D02*
X156005177Y-90995663D01*
X156100415Y-90948044D01*
X156148034Y-90852806D01*
X156148034Y-90709949D01*
X156100415Y-90614711D01*
X156052796Y-90567092D01*
%TO.C,MB1S*%
X144751053Y-93266935D02*
X143751053Y-93266935D01*
X144465339Y-92933601D01*
X143751053Y-92600268D01*
X144751053Y-92600268D01*
X144227244Y-91790744D02*
X144274863Y-91647887D01*
X144322482Y-91600268D01*
X144417720Y-91552649D01*
X144560577Y-91552649D01*
X144655815Y-91600268D01*
X144703434Y-91647887D01*
X144751053Y-91743125D01*
X144751053Y-92124078D01*
X143751053Y-92124078D01*
X143751053Y-91790744D01*
X143798673Y-91695506D01*
X143846292Y-91647887D01*
X143941530Y-91600268D01*
X144036768Y-91600268D01*
X144132006Y-91647887D01*
X144179625Y-91695506D01*
X144227244Y-91790744D01*
X144227244Y-92124078D01*
X144751053Y-90600268D02*
X144751053Y-91171697D01*
X144751053Y-90885982D02*
X143751053Y-90885982D01*
X143893911Y-90981221D01*
X143989149Y-91076459D01*
X144036768Y-91171697D01*
X144703434Y-90219316D02*
X144751053Y-90076459D01*
X144751053Y-89838363D01*
X144703434Y-89743125D01*
X144655815Y-89695506D01*
X144560577Y-89647887D01*
X144465339Y-89647887D01*
X144370101Y-89695506D01*
X144322482Y-89743125D01*
X144274863Y-89838363D01*
X144227244Y-90028840D01*
X144179625Y-90124078D01*
X144132006Y-90171697D01*
X144036768Y-90219316D01*
X143941530Y-90219316D01*
X143846292Y-90171697D01*
X143798673Y-90124078D01*
X143751053Y-90028840D01*
X143751053Y-89790744D01*
X143798673Y-89647887D01*
%TO.C,78L05*%
X150482026Y-98459412D02*
X150482026Y-97792746D01*
X151482026Y-98221317D01*
X150910598Y-97268936D02*
X150862979Y-97364174D01*
X150815360Y-97411793D01*
X150720122Y-97459412D01*
X150672503Y-97459412D01*
X150577265Y-97411793D01*
X150529646Y-97364174D01*
X150482026Y-97268936D01*
X150482026Y-97078460D01*
X150529646Y-96983222D01*
X150577265Y-96935603D01*
X150672503Y-96887984D01*
X150720122Y-96887984D01*
X150815360Y-96935603D01*
X150862979Y-96983222D01*
X150910598Y-97078460D01*
X150910598Y-97268936D01*
X150958217Y-97364174D01*
X151005836Y-97411793D01*
X151101074Y-97459412D01*
X151291550Y-97459412D01*
X151386788Y-97411793D01*
X151434407Y-97364174D01*
X151482026Y-97268936D01*
X151482026Y-97078460D01*
X151434407Y-96983222D01*
X151386788Y-96935603D01*
X151291550Y-96887984D01*
X151101074Y-96887984D01*
X151005836Y-96935603D01*
X150958217Y-96983222D01*
X150910598Y-97078460D01*
X151482026Y-95983222D02*
X151482026Y-96459412D01*
X150482026Y-96459412D01*
X150482026Y-95459412D02*
X150482026Y-95364174D01*
X150529646Y-95268936D01*
X150577265Y-95221317D01*
X150672503Y-95173698D01*
X150862979Y-95126079D01*
X151101074Y-95126079D01*
X151291550Y-95173698D01*
X151386788Y-95221317D01*
X151434407Y-95268936D01*
X151482026Y-95364174D01*
X151482026Y-95459412D01*
X151434407Y-95554650D01*
X151386788Y-95602269D01*
X151291550Y-95649888D01*
X151101074Y-95697507D01*
X150862979Y-95697507D01*
X150672503Y-95649888D01*
X150577265Y-95602269D01*
X150529646Y-95554650D01*
X150482026Y-95459412D01*
X150482026Y-94221317D02*
X150482026Y-94697507D01*
X150958217Y-94745126D01*
X150910598Y-94697507D01*
X150862979Y-94602269D01*
X150862979Y-94364174D01*
X150910598Y-94268936D01*
X150958217Y-94221317D01*
X151053455Y-94173698D01*
X151291550Y-94173698D01*
X151386788Y-94221317D01*
X151434407Y-94268936D01*
X151482026Y-94364174D01*
X151482026Y-94602269D01*
X151434407Y-94697507D01*
X151386788Y-94745126D01*
%TO.C,GND*%
X158007790Y-104910000D02*
X157912552Y-104862380D01*
X157769695Y-104862380D01*
X157626837Y-104910000D01*
X157531599Y-105005238D01*
X157483980Y-105100476D01*
X157436361Y-105290952D01*
X157436361Y-105433809D01*
X157483980Y-105624285D01*
X157531599Y-105719523D01*
X157626837Y-105814761D01*
X157769695Y-105862380D01*
X157864933Y-105862380D01*
X158007790Y-105814761D01*
X158055409Y-105767142D01*
X158055409Y-105433809D01*
X157864933Y-105433809D01*
X158483980Y-105862380D02*
X158483980Y-104862380D01*
X159055409Y-105862380D01*
X159055409Y-104862380D01*
X159531599Y-105862380D02*
X159531599Y-104862380D01*
X159769695Y-104862380D01*
X159912552Y-104910000D01*
X160007790Y-105005238D01*
X160055409Y-105100476D01*
X160103028Y-105290952D01*
X160103028Y-105433809D01*
X160055409Y-105624285D01*
X160007790Y-105719523D01*
X159912552Y-105814761D01*
X159769695Y-105862380D01*
X159531599Y-105862380D01*
%TO.C,C2*%
X145864322Y-121136249D02*
X145911941Y-121183868D01*
X145959560Y-121326725D01*
X145959560Y-121421963D01*
X145911941Y-121564821D01*
X145816703Y-121660059D01*
X145721465Y-121707678D01*
X145530989Y-121755297D01*
X145388132Y-121755297D01*
X145197656Y-121707678D01*
X145102418Y-121660059D01*
X145007180Y-121564821D01*
X144959560Y-121421963D01*
X144959560Y-121326725D01*
X145007180Y-121183868D01*
X145054799Y-121136249D01*
X145054799Y-120755297D02*
X145007180Y-120707678D01*
X144959560Y-120612440D01*
X144959560Y-120374344D01*
X145007180Y-120279106D01*
X145054799Y-120231487D01*
X145150037Y-120183868D01*
X145245275Y-120183868D01*
X145388132Y-120231487D01*
X145959560Y-120802916D01*
X145959560Y-120183868D01*
X149027470Y-120041668D02*
X148979851Y-119994049D01*
X148932231Y-119898811D01*
X148932231Y-119660715D01*
X148979851Y-119565477D01*
X149027470Y-119517858D01*
X149122708Y-119470239D01*
X149217946Y-119470239D01*
X149360803Y-119517858D01*
X149932231Y-120089287D01*
X149932231Y-119470239D01*
X149027470Y-119089287D02*
X148979851Y-119041668D01*
X148932231Y-118946430D01*
X148932231Y-118708334D01*
X148979851Y-118613096D01*
X149027470Y-118565477D01*
X149122708Y-118517858D01*
X149217946Y-118517858D01*
X149360803Y-118565477D01*
X149932231Y-119136906D01*
X149932231Y-118517858D01*
X149265565Y-117660715D02*
X149932231Y-117660715D01*
X149265565Y-118089287D02*
X149789374Y-118089287D01*
X149884612Y-118041668D01*
X149932231Y-117946430D01*
X149932231Y-117803572D01*
X149884612Y-117708334D01*
X149836993Y-117660715D01*
X149408422Y-116851191D02*
X149408422Y-117184525D01*
X149932231Y-117184525D02*
X148932231Y-117184525D01*
X148932231Y-116708334D01*
%TO.C,C1*%
X145197692Y-79842702D02*
X145245311Y-79890321D01*
X145292930Y-80033178D01*
X145292930Y-80128416D01*
X145245311Y-80271274D01*
X145150073Y-80366512D01*
X145054835Y-80414131D01*
X144864359Y-80461750D01*
X144721502Y-80461750D01*
X144531026Y-80414131D01*
X144435788Y-80366512D01*
X144340550Y-80271274D01*
X144292930Y-80128416D01*
X144292930Y-80033178D01*
X144340550Y-79890321D01*
X144388169Y-79842702D01*
X145292930Y-78890321D02*
X145292930Y-79461750D01*
X145292930Y-79176036D02*
X144292930Y-79176036D01*
X144435788Y-79271274D01*
X144531026Y-79366512D01*
X144578645Y-79461750D01*
X144387619Y-77842857D02*
X144340000Y-77795238D01*
X144292380Y-77700000D01*
X144292380Y-77461904D01*
X144340000Y-77366666D01*
X144387619Y-77319047D01*
X144482857Y-77271428D01*
X144578095Y-77271428D01*
X144720952Y-77319047D01*
X145292380Y-77890476D01*
X145292380Y-77271428D01*
X144387619Y-76890476D02*
X144340000Y-76842857D01*
X144292380Y-76747619D01*
X144292380Y-76509523D01*
X144340000Y-76414285D01*
X144387619Y-76366666D01*
X144482857Y-76319047D01*
X144578095Y-76319047D01*
X144720952Y-76366666D01*
X145292380Y-76938095D01*
X145292380Y-76319047D01*
X144625714Y-75461904D02*
X145292380Y-75461904D01*
X144625714Y-75890476D02*
X145149523Y-75890476D01*
X145244761Y-75842857D01*
X145292380Y-75747619D01*
X145292380Y-75604761D01*
X145244761Y-75509523D01*
X145197142Y-75461904D01*
X144768571Y-74652380D02*
X144768571Y-74985714D01*
X145292380Y-74985714D02*
X144292380Y-74985714D01*
X144292380Y-74509523D01*
%TD*%
M02*
