%TF.GenerationSoftware,KiCad,Pcbnew,(5.1.10-1-10_14)*%
%TF.CreationDate,2021-06-08T13:14:51-07:00*%
%TF.ProjectId,EurorackBBPS,4575726f-7261-4636-9b42-4250532e6b69,rev?*%
%TF.SameCoordinates,Original*%
%TF.FileFunction,Soldermask,Top*%
%TF.FilePolarity,Negative*%
%FSLAX46Y46*%
G04 Gerber Fmt 4.6, Leading zero omitted, Abs format (unit mm)*
G04 Created by KiCad (PCBNEW (5.1.10-1-10_14)) date 2021-06-08 13:14:51*
%MOMM*%
%LPD*%
G01*
G04 APERTURE LIST*
%ADD10O,1.600000X1.600000*%
%ADD11C,1.600000*%
%ADD12C,1.800000*%
%ADD13R,1.800000X1.800000*%
%ADD14C,1.200000*%
%ADD15R,1.200000X1.200000*%
%ADD16O,1.700000X1.700000*%
%ADD17R,1.700000X1.700000*%
%ADD18R,1.500000X1.050000*%
%ADD19O,1.500000X1.050000*%
%ADD20R,1.600000X1.600000*%
G04 APERTURE END LIST*
D10*
%TO.C,R1*%
X159476017Y-85556638D03*
D11*
X151856017Y-85556638D03*
%TD*%
D10*
%TO.C,R2*%
X159458035Y-82283880D03*
D11*
X151838035Y-82283880D03*
%TD*%
D12*
%TO.C,PWR*%
X146050000Y-85090000D03*
D13*
X146050000Y-82550000D03*
%TD*%
D14*
%TO.C,C4*%
X158750000Y-88670000D03*
D15*
X158750000Y-90170000D03*
%TD*%
D14*
%TO.C,C3*%
X153670000Y-88670000D03*
D15*
X153670000Y-90170000D03*
%TD*%
%TO.C,MB1S*%
G36*
G01*
X148452500Y-93465000D02*
X148727500Y-93465000D01*
G75*
G02*
X148865000Y-93602500I0J-137500D01*
G01*
X148865000Y-94777500D01*
G75*
G02*
X148727500Y-94915000I-137500J0D01*
G01*
X148452500Y-94915000D01*
G75*
G02*
X148315000Y-94777500I0J137500D01*
G01*
X148315000Y-93602500D01*
G75*
G02*
X148452500Y-93465000I137500J0D01*
G01*
G37*
G36*
G01*
X145912500Y-93465000D02*
X146187500Y-93465000D01*
G75*
G02*
X146325000Y-93602500I0J-137500D01*
G01*
X146325000Y-94777500D01*
G75*
G02*
X146187500Y-94915000I-137500J0D01*
G01*
X145912500Y-94915000D01*
G75*
G02*
X145775000Y-94777500I0J137500D01*
G01*
X145775000Y-93602500D01*
G75*
G02*
X145912500Y-93465000I137500J0D01*
G01*
G37*
G36*
G01*
X145912500Y-87965000D02*
X146187500Y-87965000D01*
G75*
G02*
X146325000Y-88102500I0J-137500D01*
G01*
X146325000Y-89277500D01*
G75*
G02*
X146187500Y-89415000I-137500J0D01*
G01*
X145912500Y-89415000D01*
G75*
G02*
X145775000Y-89277500I0J137500D01*
G01*
X145775000Y-88102500D01*
G75*
G02*
X145912500Y-87965000I137500J0D01*
G01*
G37*
G36*
G01*
X148452500Y-87965000D02*
X148727500Y-87965000D01*
G75*
G02*
X148865000Y-88102500I0J-137500D01*
G01*
X148865000Y-89277500D01*
G75*
G02*
X148727500Y-89415000I-137500J0D01*
G01*
X148452500Y-89415000D01*
G75*
G02*
X148315000Y-89277500I0J137500D01*
G01*
X148315000Y-88102500D01*
G75*
G02*
X148452500Y-87965000I137500J0D01*
G01*
G37*
%TD*%
D16*
%TO.C,J1*%
X151130000Y-114300000D03*
X148590000Y-114300000D03*
X151130000Y-111760000D03*
X148590000Y-111760000D03*
X151130000Y-109220000D03*
X148590000Y-109220000D03*
X151130000Y-106680000D03*
X148590000Y-106680000D03*
X151130000Y-104140000D03*
D17*
X148590000Y-104140000D03*
%TD*%
D18*
%TO.C,78L05*%
X153724612Y-95023392D03*
D19*
X153724612Y-97563392D03*
X153724612Y-96293392D03*
%TD*%
D16*
%TO.C,GND*%
X158750000Y-100330000D03*
D17*
X158750000Y-102870000D03*
%TD*%
D20*
%TO.C,C2*%
X148590000Y-124460000D03*
D11*
X148590000Y-121960000D03*
%TD*%
%TO.C,C1*%
X148590000Y-78700000D03*
D20*
X148590000Y-76200000D03*
%TD*%
D17*
%TO.C,J2*%
X153670000Y-76200000D03*
D16*
X153670000Y-78740000D03*
%TD*%
%TO.C,J3*%
X158750000Y-78740000D03*
D17*
X158750000Y-76200000D03*
%TD*%
%TO.C,J4*%
X158750000Y-121920000D03*
D16*
X158750000Y-124460000D03*
%TD*%
%TO.C,J5*%
X153670000Y-124460000D03*
D17*
X153670000Y-121920000D03*
%TD*%
M02*
